<mxfile host="app.diagrams.net" agent="Mozilla/5.0 (X11; Linux x86_64; rv:128.0) Gecko/20100101 Firefox/128.0" version="24.7.6">
  <diagram name="Seite-1" id="gTgqjjQWj-8JQJrlAAQa">
    <mxGraphModel dx="2261" dy="1918" grid="1" gridSize="10" guides="1" tooltips="1" connect="1" arrows="1" fold="1" page="1" pageScale="1" pageWidth="827" pageHeight="1169" math="0" shadow="0">
      <root>
        <mxCell id="0" />
        <mxCell id="1" parent="0" />
        <mxCell id="1OXfZe1y36bJGcs7A2kt-36" value="" style="group" parent="1" vertex="1" connectable="0">
          <mxGeometry x="720" y="400" width="290" height="280" as="geometry" />
        </mxCell>
        <mxCell id="8D--kwT4kYS_x3MsUnNY-208" value="" style="rhombus;whiteSpace=wrap;html=1;fillColor=#1ba1e2;fontColor=#ffffff;strokeColor=default;strokeWidth=3;" parent="1OXfZe1y36bJGcs7A2kt-36" vertex="1">
          <mxGeometry width="280" height="280" as="geometry" />
        </mxCell>
        <mxCell id="8D--kwT4kYS_x3MsUnNY-209" value="B" style="rhombus;whiteSpace=wrap;html=1;fillColor=#6a00ff;fontColor=#ffffff;strokeColor=#3700CC;" parent="1OXfZe1y36bJGcs7A2kt-36" vertex="1">
          <mxGeometry x="120" y="120" width="40" height="40" as="geometry" />
        </mxCell>
        <mxCell id="8D--kwT4kYS_x3MsUnNY-60" value="" style="rhombus;whiteSpace=wrap;html=1;fillColor=#1ba1e2;fontColor=#ffffff;strokeColor=default;strokeWidth=3;" parent="1" vertex="1">
          <mxGeometry x="580" y="260" width="280" height="280" as="geometry" />
        </mxCell>
        <mxCell id="8D--kwT4kYS_x3MsUnNY-48" value="" style="rhombus;whiteSpace=wrap;html=1;fillColor=#1ba1e2;fontColor=#ffffff;strokeColor=#000000;strokeWidth=2;" parent="1" vertex="1">
          <mxGeometry x="140" y="260" width="600" height="600" as="geometry" />
        </mxCell>
        <mxCell id="8D--kwT4kYS_x3MsUnNY-259" value="" style="group" parent="1" vertex="1" connectable="0">
          <mxGeometry x="579" y="580.5" width="280" height="280" as="geometry" />
        </mxCell>
        <mxCell id="8D--kwT4kYS_x3MsUnNY-260" value="" style="rhombus;whiteSpace=wrap;html=1;fillColor=#1ba1e2;fontColor=#ffffff;strokeColor=default;strokeWidth=3;" parent="8D--kwT4kYS_x3MsUnNY-259" vertex="1">
          <mxGeometry width="280" height="280" as="geometry" />
        </mxCell>
        <mxCell id="8D--kwT4kYS_x3MsUnNY-261" value="B" style="rhombus;whiteSpace=wrap;html=1;fillColor=#6a00ff;fontColor=#ffffff;strokeColor=#3700CC;" parent="8D--kwT4kYS_x3MsUnNY-259" vertex="1">
          <mxGeometry x="120" y="120" width="40" height="40" as="geometry" />
        </mxCell>
        <mxCell id="8D--kwT4kYS_x3MsUnNY-152" value="" style="rhombus;whiteSpace=wrap;html=1;fillColor=#1ba1e2;fontColor=#ffffff;strokeColor=default;strokeWidth=3;" parent="1" vertex="1">
          <mxGeometry x="160" y="120" width="280" height="280" as="geometry" />
        </mxCell>
        <mxCell id="8D--kwT4kYS_x3MsUnNY-52" value="" style="group" parent="1" vertex="1" connectable="0">
          <mxGeometry x="440" y="120" width="280" height="360" as="geometry" />
        </mxCell>
        <mxCell id="8D--kwT4kYS_x3MsUnNY-45" value="" style="rhombus;whiteSpace=wrap;html=1;fillColor=#1ba1e2;fontColor=#ffffff;strokeColor=default;strokeWidth=3;" parent="8D--kwT4kYS_x3MsUnNY-52" vertex="1">
          <mxGeometry width="280" height="280" as="geometry" />
        </mxCell>
        <mxCell id="8D--kwT4kYS_x3MsUnNY-51" value="B" style="rhombus;whiteSpace=wrap;html=1;fillColor=#6a00ff;fontColor=#ffffff;strokeColor=#3700CC;" parent="8D--kwT4kYS_x3MsUnNY-52" vertex="1">
          <mxGeometry x="120" y="120" width="40" height="40" as="geometry" />
        </mxCell>
        <mxCell id="8D--kwT4kYS_x3MsUnNY-142" value="&lt;div&gt;LiPsy&lt;/div&gt;&lt;div&gt;19&lt;br&gt;&lt;/div&gt;" style="rhombus;whiteSpace=wrap;html=1;fillColor=#f5f5f5;fontColor=#333333;strokeColor=#666666;" parent="8D--kwT4kYS_x3MsUnNY-52" vertex="1">
          <mxGeometry x="60" y="80" width="80" height="80" as="geometry" />
        </mxCell>
        <mxCell id="8D--kwT4kYS_x3MsUnNY-65" value="&lt;div&gt;Frassle the 1st&lt;/div&gt;&lt;div&gt;20&lt;br&gt;&lt;/div&gt;" style="rhombus;whiteSpace=wrap;html=1;fillColor=#f5f5f5;fontColor=#333333;strokeColor=#666666;" parent="8D--kwT4kYS_x3MsUnNY-52" vertex="1">
          <mxGeometry x="100" y="280" width="80" height="80" as="geometry" />
        </mxCell>
        <mxCell id="8D--kwT4kYS_x3MsUnNY-53" value="" style="group" parent="1" vertex="1" connectable="0">
          <mxGeometry x="300" y="-20" width="280" height="280" as="geometry" />
        </mxCell>
        <mxCell id="8D--kwT4kYS_x3MsUnNY-54" value="" style="rhombus;whiteSpace=wrap;html=1;fillColor=#1ba1e2;fontColor=#ffffff;strokeColor=default;strokeWidth=3;" parent="8D--kwT4kYS_x3MsUnNY-53" vertex="1">
          <mxGeometry width="280" height="280" as="geometry" />
        </mxCell>
        <mxCell id="8D--kwT4kYS_x3MsUnNY-55" value="B" style="rhombus;whiteSpace=wrap;html=1;fillColor=#6a00ff;fontColor=#ffffff;strokeColor=#3700CC;" parent="8D--kwT4kYS_x3MsUnNY-53" vertex="1">
          <mxGeometry x="120" y="120" width="40" height="40" as="geometry" />
        </mxCell>
        <mxCell id="8D--kwT4kYS_x3MsUnNY-154" value="" style="rhombus;whiteSpace=wrap;html=1;fillColor=#18141DCC;" parent="8D--kwT4kYS_x3MsUnNY-53" vertex="1">
          <mxGeometry x="-20" y="200" width="80" height="80" as="geometry" />
        </mxCell>
        <mxCell id="8D--kwT4kYS_x3MsUnNY-155" value="" style="rhombus;whiteSpace=wrap;html=1;fillColor=#18141DCC;" parent="8D--kwT4kYS_x3MsUnNY-53" vertex="1">
          <mxGeometry x="60" y="120" width="80" height="80" as="geometry" />
        </mxCell>
        <mxCell id="8D--kwT4kYS_x3MsUnNY-156" value="" style="rhombus;whiteSpace=wrap;html=1;fillColor=#18141DCC;" parent="8D--kwT4kYS_x3MsUnNY-53" vertex="1">
          <mxGeometry x="20" y="160" width="80" height="80" as="geometry" />
        </mxCell>
        <mxCell id="1OXfZe1y36bJGcs7A2kt-9" value="&lt;div&gt;Sandro&lt;/div&gt;&lt;div&gt;22&lt;br&gt;&lt;/div&gt;" style="rhombus;whiteSpace=wrap;html=1;fillColor=#f5f5f5;strokeColor=#666666;fontColor=#333333;" parent="8D--kwT4kYS_x3MsUnNY-53" vertex="1">
          <mxGeometry x="140" y="200" width="80" height="80" as="geometry" />
        </mxCell>
        <mxCell id="8D--kwT4kYS_x3MsUnNY-10" value="Salty&lt;br&gt;23" style="rhombus;whiteSpace=wrap;html=1;fillColor=#f5f5f5;fontColor=#333333;strokeColor=#666666;" parent="1" vertex="1">
          <mxGeometry x="320" y="300" width="80" height="80" as="geometry" />
        </mxCell>
        <mxCell id="8D--kwT4kYS_x3MsUnNY-11" value="Lime77e&lt;br&gt;22" style="rhombus;whiteSpace=wrap;html=1;fillColor=#f5f5f5;fontColor=#333333;strokeColor=#666666;" parent="1" vertex="1">
          <mxGeometry x="300" y="360" width="80" height="80" as="geometry" />
        </mxCell>
        <mxCell id="8D--kwT4kYS_x3MsUnNY-12" value="&lt;div&gt;Lord Dragonet&lt;/div&gt;&lt;div&gt;22&lt;br&gt;&lt;/div&gt;" style="rhombus;whiteSpace=wrap;html=1;" parent="1" vertex="1">
          <mxGeometry x="260" y="400" width="80" height="80" as="geometry" />
        </mxCell>
        <mxCell id="8D--kwT4kYS_x3MsUnNY-15" value="&lt;div&gt;monodestroyer5&lt;/div&gt;&lt;div&gt;22&lt;br&gt;&lt;/div&gt;" style="rhombus;whiteSpace=wrap;html=1;fillColor=#f5f5f5;strokeColor=#666666;fontColor=#333333;" parent="1" vertex="1">
          <mxGeometry x="540" y="320" width="80" height="80" as="geometry" />
        </mxCell>
        <mxCell id="8D--kwT4kYS_x3MsUnNY-16" value="&lt;div&gt;Roxy&lt;/div&gt;&lt;div&gt;23&lt;br&gt;&lt;/div&gt;" style="rhombus;whiteSpace=wrap;html=1;fillColor=#f5f5f5;fontColor=#333333;strokeColor=#666666;" parent="1" vertex="1">
          <mxGeometry x="500" y="280" width="80" height="80" as="geometry" />
        </mxCell>
        <mxCell id="8D--kwT4kYS_x3MsUnNY-17" value="&lt;div&gt;Tomea&lt;/div&gt;&lt;div&gt;22&lt;br&gt;&lt;/div&gt;" style="rhombus;whiteSpace=wrap;html=1;fillColor=#f5f5f5;fontColor=#333333;strokeColor=#666666;" parent="1" vertex="1">
          <mxGeometry x="460" y="240" width="80" height="80" as="geometry" />
        </mxCell>
        <mxCell id="8D--kwT4kYS_x3MsUnNY-18" value="alik&lt;br&gt;23" style="rhombus;whiteSpace=wrap;html=1;" parent="1" vertex="1">
          <mxGeometry x="300" y="440" width="80" height="80" as="geometry" />
        </mxCell>
        <mxCell id="8D--kwT4kYS_x3MsUnNY-20" value="MaWa&lt;br&gt;24" style="rhombus;whiteSpace=wrap;html=1;fillColor=#f5f5f5;fontColor=#333333;strokeColor=#666666;" parent="1" vertex="1">
          <mxGeometry x="400" y="420" width="80" height="80" as="geometry" />
        </mxCell>
        <mxCell id="8D--kwT4kYS_x3MsUnNY-21" value="&lt;div&gt;Kevinho&lt;/div&gt;&lt;div&gt;22&lt;br&gt;&lt;/div&gt;" style="rhombus;whiteSpace=wrap;html=1;" parent="1" vertex="1">
          <mxGeometry x="480" y="420" width="80" height="80" as="geometry" />
        </mxCell>
        <mxCell id="8D--kwT4kYS_x3MsUnNY-24" value="xXxElitexXx&lt;br&gt;23" style="rhombus;whiteSpace=wrap;html=1;" parent="1" vertex="1">
          <mxGeometry x="440" y="460" width="80" height="80" as="geometry" />
        </mxCell>
        <mxCell id="8D--kwT4kYS_x3MsUnNY-25" value="Mona&lt;br&gt;24" style="rhombus;whiteSpace=wrap;html=1;fillColor=#f5f5f5;strokeColor=#666666;fontColor=#333333;" parent="1" vertex="1">
          <mxGeometry x="360" y="260" width="80" height="80" as="geometry" />
        </mxCell>
        <mxCell id="8D--kwT4kYS_x3MsUnNY-27" value="Der Andere&lt;br&gt;24" style="rhombus;whiteSpace=wrap;html=1;" parent="1" vertex="1">
          <mxGeometry x="440" y="380" width="80" height="80" as="geometry" />
        </mxCell>
        <mxCell id="8D--kwT4kYS_x3MsUnNY-30" value="" style="rhombus;whiteSpace=wrap;html=1;fillColor=#18141DCC;" parent="1" vertex="1">
          <mxGeometry x="400" y="140" width="80" height="80" as="geometry" />
        </mxCell>
        <mxCell id="8D--kwT4kYS_x3MsUnNY-31" value="Kaethe&lt;br&gt;22" style="rhombus;whiteSpace=wrap;html=1;fillColor=#f5f5f5;fontColor=#333333;strokeColor=#666666;" parent="1" vertex="1">
          <mxGeometry x="400" y="220" width="80" height="80" as="geometry" />
        </mxCell>
        <mxCell id="8D--kwT4kYS_x3MsUnNY-33" value="" style="rhombus;whiteSpace=wrap;html=1;fillColor=#18141DCC;" parent="1" vertex="1">
          <mxGeometry x="620" y="400" width="80" height="80" as="geometry" />
        </mxCell>
        <mxCell id="8D--kwT4kYS_x3MsUnNY-35" value="" style="rhombus;whiteSpace=wrap;html=1;fillColor=#18141DCC;" parent="1" vertex="1">
          <mxGeometry x="580" y="440" width="80" height="80" as="geometry" />
        </mxCell>
        <mxCell id="8D--kwT4kYS_x3MsUnNY-40" value="&lt;div&gt;Koryphäe Satara&lt;/div&gt;&lt;div&gt;18&lt;br&gt;&lt;/div&gt;" style="rhombus;whiteSpace=wrap;html=1;" parent="1" vertex="1">
          <mxGeometry x="320" y="500" width="80" height="80" as="geometry" />
        </mxCell>
        <mxCell id="8D--kwT4kYS_x3MsUnNY-41" value="" style="rhombus;whiteSpace=wrap;html=1;fillColor=#18141DCC;" parent="1" vertex="1">
          <mxGeometry x="220" y="280" width="80" height="80" as="geometry" />
        </mxCell>
        <mxCell id="8D--kwT4kYS_x3MsUnNY-49" value="&lt;div&gt;HQ&lt;br&gt;X: 433&lt;/div&gt;&lt;div&gt;Y: 496&lt;br&gt;&lt;/div&gt;" style="rhombus;whiteSpace=wrap;html=1;fillColor=#d80073;fontColor=#ffffff;strokeColor=#A50040;" parent="1" vertex="1">
          <mxGeometry x="380" y="500" width="120" height="120" as="geometry" />
        </mxCell>
        <mxCell id="8D--kwT4kYS_x3MsUnNY-66" value="&lt;div&gt;nexO_TL&lt;/div&gt;&lt;div&gt;21&lt;br&gt;&lt;/div&gt;" style="rhombus;whiteSpace=wrap;html=1;fillColor=#f5f5f5;fontColor=#333333;strokeColor=#666666;" parent="1" vertex="1">
          <mxGeometry x="480" y="500" width="80" height="80" as="geometry" />
        </mxCell>
        <mxCell id="8D--kwT4kYS_x3MsUnNY-67" value="&lt;div&gt;K10&lt;/div&gt;&lt;div&gt;16&lt;br&gt;&lt;/div&gt;" style="rhombus;whiteSpace=wrap;html=1;fillColor=#f5f5f5;fontColor=#333333;strokeColor=#666666;" parent="1" vertex="1">
          <mxGeometry x="260" y="480" width="80" height="80" as="geometry" />
        </mxCell>
        <mxCell id="8D--kwT4kYS_x3MsUnNY-68" value="&lt;div&gt;Ufonator&lt;/div&gt;&lt;div&gt;20&lt;br&gt;&lt;/div&gt;" style="rhombus;whiteSpace=wrap;html=1;fillColor=#f5f5f5;fontColor=#333333;strokeColor=#666666;" parent="1" vertex="1">
          <mxGeometry x="220" y="440" width="80" height="80" as="geometry" />
        </mxCell>
        <mxCell id="8D--kwT4kYS_x3MsUnNY-73" value="" style="group" parent="1" vertex="1" connectable="0">
          <mxGeometry x="460" y="-140" width="280" height="280" as="geometry" />
        </mxCell>
        <mxCell id="8D--kwT4kYS_x3MsUnNY-74" value="" style="rhombus;whiteSpace=wrap;html=1;fillColor=#1ba1e2;fontColor=#ffffff;strokeColor=default;strokeWidth=3;" parent="8D--kwT4kYS_x3MsUnNY-73" vertex="1">
          <mxGeometry width="280" height="280" as="geometry" />
        </mxCell>
        <mxCell id="8D--kwT4kYS_x3MsUnNY-75" value="B" style="rhombus;whiteSpace=wrap;html=1;fillColor=#6a00ff;fontColor=#ffffff;strokeColor=#3700CC;" parent="8D--kwT4kYS_x3MsUnNY-73" vertex="1">
          <mxGeometry x="120" y="120" width="40" height="40" as="geometry" />
        </mxCell>
        <mxCell id="8D--kwT4kYS_x3MsUnNY-76" value="" style="group" parent="1" vertex="1" connectable="0">
          <mxGeometry x="620" y="20" width="280" height="280" as="geometry" />
        </mxCell>
        <mxCell id="8D--kwT4kYS_x3MsUnNY-77" value="" style="rhombus;whiteSpace=wrap;html=1;fillColor=#1ba1e2;fontColor=#ffffff;strokeColor=default;strokeWidth=3;" parent="8D--kwT4kYS_x3MsUnNY-76" vertex="1">
          <mxGeometry width="280" height="280" as="geometry" />
        </mxCell>
        <mxCell id="8D--kwT4kYS_x3MsUnNY-78" value="B" style="rhombus;whiteSpace=wrap;html=1;fillColor=#6a00ff;fontColor=#ffffff;strokeColor=#3700CC;" parent="8D--kwT4kYS_x3MsUnNY-76" vertex="1">
          <mxGeometry x="120" y="120" width="40" height="40" as="geometry" />
        </mxCell>
        <mxCell id="8D--kwT4kYS_x3MsUnNY-1" value="Falle" style="rhombus;whiteSpace=wrap;html=1;fillColor=#a20025;fontColor=#ffffff;strokeColor=#6F0000;" parent="1" vertex="1">
          <mxGeometry x="360" y="320" width="120" height="120" as="geometry" />
        </mxCell>
        <mxCell id="8D--kwT4kYS_x3MsUnNY-158" value="" style="group" parent="1" vertex="1" connectable="0">
          <mxGeometry x="460" y="-460" width="280" height="280" as="geometry" />
        </mxCell>
        <mxCell id="8D--kwT4kYS_x3MsUnNY-159" value="" style="rhombus;whiteSpace=wrap;html=1;fillColor=#1ba1e2;fontColor=#ffffff;strokeColor=default;strokeWidth=3;" parent="8D--kwT4kYS_x3MsUnNY-158" vertex="1">
          <mxGeometry width="280" height="280" as="geometry" />
        </mxCell>
        <mxCell id="8D--kwT4kYS_x3MsUnNY-160" value="B" style="rhombus;whiteSpace=wrap;html=1;fillColor=#6a00ff;fontColor=#ffffff;strokeColor=#3700CC;" parent="8D--kwT4kYS_x3MsUnNY-158" vertex="1">
          <mxGeometry x="120" y="120" width="40" height="40" as="geometry" />
        </mxCell>
        <mxCell id="8D--kwT4kYS_x3MsUnNY-161" value="" style="group" parent="1" vertex="1" connectable="0">
          <mxGeometry x="300" y="-580" width="280" height="400" as="geometry" />
        </mxCell>
        <mxCell id="8D--kwT4kYS_x3MsUnNY-162" value="" style="rhombus;whiteSpace=wrap;html=1;fillColor=#1ba1e2;fontColor=#ffffff;strokeColor=default;strokeWidth=3;" parent="8D--kwT4kYS_x3MsUnNY-161" vertex="1">
          <mxGeometry width="280" height="280" as="geometry" />
        </mxCell>
        <mxCell id="8D--kwT4kYS_x3MsUnNY-163" value="B" style="rhombus;whiteSpace=wrap;html=1;fillColor=#6a00ff;fontColor=#ffffff;strokeColor=#3700CC;" parent="8D--kwT4kYS_x3MsUnNY-161" vertex="1">
          <mxGeometry x="120" y="120" width="40" height="40" as="geometry" />
        </mxCell>
        <mxCell id="8D--kwT4kYS_x3MsUnNY-223" value="" style="group" parent="8D--kwT4kYS_x3MsUnNY-161" vertex="1" connectable="0">
          <mxGeometry x="-160" y="120" width="280" height="280" as="geometry" />
        </mxCell>
        <mxCell id="8D--kwT4kYS_x3MsUnNY-224" value="" style="rhombus;whiteSpace=wrap;html=1;fillColor=#1ba1e2;fontColor=#ffffff;strokeColor=default;strokeWidth=3;" parent="8D--kwT4kYS_x3MsUnNY-223" vertex="1">
          <mxGeometry width="280" height="280" as="geometry" />
        </mxCell>
        <mxCell id="8D--kwT4kYS_x3MsUnNY-225" value="B" style="rhombus;whiteSpace=wrap;html=1;fillColor=#6a00ff;fontColor=#ffffff;strokeColor=#3700CC;" parent="8D--kwT4kYS_x3MsUnNY-223" vertex="1">
          <mxGeometry x="120" y="120" width="40" height="40" as="geometry" />
        </mxCell>
        <mxCell id="8D--kwT4kYS_x3MsUnNY-168" value="" style="group" parent="1" vertex="1" connectable="0">
          <mxGeometry x="600" y="-280" width="280" height="280" as="geometry" />
        </mxCell>
        <mxCell id="8D--kwT4kYS_x3MsUnNY-169" value="" style="rhombus;whiteSpace=wrap;html=1;fillColor=#1ba1e2;fontColor=#ffffff;strokeColor=default;strokeWidth=3;" parent="8D--kwT4kYS_x3MsUnNY-168" vertex="1">
          <mxGeometry width="280" height="280" as="geometry" />
        </mxCell>
        <mxCell id="8D--kwT4kYS_x3MsUnNY-170" value="B" style="rhombus;whiteSpace=wrap;html=1;fillColor=#6a00ff;fontColor=#ffffff;strokeColor=#3700CC;" parent="8D--kwT4kYS_x3MsUnNY-168" vertex="1">
          <mxGeometry x="120" y="120" width="40" height="40" as="geometry" />
        </mxCell>
        <mxCell id="8D--kwT4kYS_x3MsUnNY-171" value="" style="group" parent="1" vertex="1" connectable="0">
          <mxGeometry x="760" y="-120" width="280" height="280" as="geometry" />
        </mxCell>
        <mxCell id="8D--kwT4kYS_x3MsUnNY-172" value="" style="rhombus;whiteSpace=wrap;html=1;fillColor=#1ba1e2;fontColor=#ffffff;strokeColor=default;strokeWidth=3;" parent="8D--kwT4kYS_x3MsUnNY-171" vertex="1">
          <mxGeometry width="280" height="280" as="geometry" />
        </mxCell>
        <mxCell id="8D--kwT4kYS_x3MsUnNY-173" value="B" style="rhombus;whiteSpace=wrap;html=1;fillColor=#6a00ff;fontColor=#ffffff;strokeColor=#3700CC;" parent="8D--kwT4kYS_x3MsUnNY-171" vertex="1">
          <mxGeometry x="120" y="120" width="40" height="40" as="geometry" />
        </mxCell>
        <mxCell id="8D--kwT4kYS_x3MsUnNY-191" value="" style="group" parent="1" vertex="1" connectable="0">
          <mxGeometry x="920" y="40" width="280" height="280" as="geometry" />
        </mxCell>
        <mxCell id="8D--kwT4kYS_x3MsUnNY-192" value="" style="rhombus;whiteSpace=wrap;html=1;fillColor=#1ba1e2;fontColor=#ffffff;strokeColor=default;strokeWidth=3;" parent="8D--kwT4kYS_x3MsUnNY-191" vertex="1">
          <mxGeometry width="280" height="280" as="geometry" />
        </mxCell>
        <mxCell id="8D--kwT4kYS_x3MsUnNY-193" value="B" style="rhombus;whiteSpace=wrap;html=1;fillColor=#6a00ff;fontColor=#ffffff;strokeColor=#3700CC;" parent="8D--kwT4kYS_x3MsUnNY-191" vertex="1">
          <mxGeometry x="120" y="120" width="40" height="40" as="geometry" />
        </mxCell>
        <mxCell id="8D--kwT4kYS_x3MsUnNY-61" value="B" style="rhombus;whiteSpace=wrap;html=1;fillColor=#6a00ff;fontColor=#ffffff;strokeColor=#3700CC;" parent="1" vertex="1">
          <mxGeometry x="700" y="380" width="40" height="40" as="geometry" />
        </mxCell>
        <mxCell id="8D--kwT4kYS_x3MsUnNY-145" value="&lt;div&gt;eisenschwein&lt;/div&gt;&lt;div&gt;22&lt;br&gt;&lt;/div&gt;" style="rhombus;whiteSpace=wrap;html=1;fillColor=#f5f5f5;fontColor=#333333;strokeColor=#666666;" parent="1" vertex="1">
          <mxGeometry x="560" y="260" width="80" height="80" as="geometry" />
        </mxCell>
        <mxCell id="8D--kwT4kYS_x3MsUnNY-146" value="" style="rhombus;whiteSpace=wrap;html=1;fillColor=#18141DCC;" parent="1" vertex="1">
          <mxGeometry x="640" y="340" width="80" height="80" as="geometry" />
        </mxCell>
        <mxCell id="8D--kwT4kYS_x3MsUnNY-147" value="" style="rhombus;whiteSpace=wrap;html=1;fillColor=#18141DCC;" parent="1" vertex="1">
          <mxGeometry x="600" y="300" width="80" height="80" as="geometry" />
        </mxCell>
        <mxCell id="8D--kwT4kYS_x3MsUnNY-194" value="" style="group" parent="1" vertex="1" connectable="0">
          <mxGeometry x="780" y="180" width="280" height="350" as="geometry" />
        </mxCell>
        <mxCell id="8D--kwT4kYS_x3MsUnNY-195" value="" style="rhombus;whiteSpace=wrap;html=1;fillColor=#1ba1e2;fontColor=#ffffff;strokeColor=default;strokeWidth=3;" parent="8D--kwT4kYS_x3MsUnNY-194" vertex="1">
          <mxGeometry width="280" height="280" as="geometry" />
        </mxCell>
        <mxCell id="8D--kwT4kYS_x3MsUnNY-196" value="B" style="rhombus;whiteSpace=wrap;html=1;fillColor=#6a00ff;fontColor=#ffffff;strokeColor=#3700CC;" parent="8D--kwT4kYS_x3MsUnNY-194" vertex="1">
          <mxGeometry x="120" y="120" width="40" height="40" as="geometry" />
        </mxCell>
        <mxCell id="1OXfZe1y36bJGcs7A2kt-7" value="&lt;div&gt;Noch umziehen:&lt;br&gt;&lt;/div&gt;&lt;div&gt;&lt;br&gt;&lt;/div&gt;&lt;div&gt;Benni0688&lt;/div&gt;&lt;div&gt;Rambo&lt;/div&gt;&lt;div&gt;Marcel&lt;/div&gt;&lt;div&gt;petterson&lt;/div&gt;&lt;div&gt;lord195982169&lt;/div&gt;&lt;div&gt;LoardLittlePig&lt;/div&gt;&lt;div&gt;King1904&lt;/div&gt;" style="rounded=0;whiteSpace=wrap;html=1;fillColor=#666666;fontColor=#FFFFFF;" parent="8D--kwT4kYS_x3MsUnNY-194" vertex="1">
          <mxGeometry y="80" width="160" height="190" as="geometry" />
        </mxCell>
        <mxCell id="8D--kwT4kYS_x3MsUnNY-213" value="" style="group" parent="1" vertex="1" connectable="0">
          <mxGeometry x="1080" y="200" width="280" height="280" as="geometry" />
        </mxCell>
        <mxCell id="8D--kwT4kYS_x3MsUnNY-214" value="" style="rhombus;whiteSpace=wrap;html=1;fillColor=#1ba1e2;fontColor=#ffffff;strokeColor=default;strokeWidth=3;" parent="8D--kwT4kYS_x3MsUnNY-213" vertex="1">
          <mxGeometry width="280" height="280" as="geometry" />
        </mxCell>
        <mxCell id="8D--kwT4kYS_x3MsUnNY-215" value="B" style="rhombus;whiteSpace=wrap;html=1;fillColor=#6a00ff;fontColor=#ffffff;strokeColor=#3700CC;" parent="8D--kwT4kYS_x3MsUnNY-213" vertex="1">
          <mxGeometry x="120" y="120" width="40" height="40" as="geometry" />
        </mxCell>
        <mxCell id="8D--kwT4kYS_x3MsUnNY-71" value="" style="rhombus;whiteSpace=wrap;html=1;fillColor=#1ba1e2;fontColor=#ffffff;strokeColor=default;strokeWidth=3;" parent="1" vertex="1">
          <mxGeometry x="300" y="-300" width="280" height="280" as="geometry" />
        </mxCell>
        <mxCell id="8D--kwT4kYS_x3MsUnNY-72" value="B" style="rhombus;whiteSpace=wrap;html=1;fillColor=#6a00ff;fontColor=#ffffff;strokeColor=#3700CC;" parent="1" vertex="1">
          <mxGeometry x="420" y="-180" width="40" height="40" as="geometry" />
        </mxCell>
        <mxCell id="8D--kwT4kYS_x3MsUnNY-82" value="" style="group" parent="1" vertex="1" connectable="0">
          <mxGeometry x="140" y="-140" width="280" height="280" as="geometry" />
        </mxCell>
        <mxCell id="8D--kwT4kYS_x3MsUnNY-83" value="" style="rhombus;whiteSpace=wrap;html=1;fillColor=#1ba1e2;fontColor=#ffffff;strokeColor=default;strokeWidth=3;" parent="8D--kwT4kYS_x3MsUnNY-82" vertex="1">
          <mxGeometry width="280" height="280" as="geometry" />
        </mxCell>
        <mxCell id="8D--kwT4kYS_x3MsUnNY-84" value="B" style="rhombus;whiteSpace=wrap;html=1;fillColor=#6a00ff;fontColor=#ffffff;strokeColor=#3700CC;" parent="8D--kwT4kYS_x3MsUnNY-82" vertex="1">
          <mxGeometry x="120" y="120" width="40" height="40" as="geometry" />
        </mxCell>
        <mxCell id="8D--kwT4kYS_x3MsUnNY-220" value="" style="group" parent="1" vertex="1" connectable="0">
          <mxGeometry y="-280" width="280" height="280" as="geometry" />
        </mxCell>
        <mxCell id="8D--kwT4kYS_x3MsUnNY-221" value="" style="rhombus;whiteSpace=wrap;html=1;fillColor=#1ba1e2;fontColor=#ffffff;strokeColor=default;strokeWidth=3;" parent="8D--kwT4kYS_x3MsUnNY-220" vertex="1">
          <mxGeometry width="280" height="280" as="geometry" />
        </mxCell>
        <mxCell id="8D--kwT4kYS_x3MsUnNY-222" value="B" style="rhombus;whiteSpace=wrap;html=1;fillColor=#6a00ff;fontColor=#ffffff;strokeColor=#3700CC;" parent="8D--kwT4kYS_x3MsUnNY-220" vertex="1">
          <mxGeometry x="120" y="120" width="40" height="40" as="geometry" />
        </mxCell>
        <mxCell id="8D--kwT4kYS_x3MsUnNY-226" value="" style="group" parent="1" vertex="1" connectable="0">
          <mxGeometry x="-20" y="20" width="280" height="280" as="geometry" />
        </mxCell>
        <mxCell id="8D--kwT4kYS_x3MsUnNY-227" value="" style="rhombus;whiteSpace=wrap;html=1;fillColor=#1ba1e2;fontColor=#ffffff;strokeColor=default;strokeWidth=3;" parent="8D--kwT4kYS_x3MsUnNY-226" vertex="1">
          <mxGeometry width="280" height="280" as="geometry" />
        </mxCell>
        <mxCell id="8D--kwT4kYS_x3MsUnNY-228" value="B" style="rhombus;whiteSpace=wrap;html=1;fillColor=#6a00ff;fontColor=#ffffff;strokeColor=#3700CC;" parent="8D--kwT4kYS_x3MsUnNY-226" vertex="1">
          <mxGeometry x="120" y="120" width="40" height="40" as="geometry" />
        </mxCell>
        <mxCell id="8D--kwT4kYS_x3MsUnNY-229" value="" style="group" parent="1" vertex="1" connectable="0">
          <mxGeometry x="-160" y="-120" width="280" height="280" as="geometry" />
        </mxCell>
        <mxCell id="8D--kwT4kYS_x3MsUnNY-230" value="" style="rhombus;whiteSpace=wrap;html=1;fillColor=#1ba1e2;fontColor=#ffffff;strokeColor=default;strokeWidth=3;" parent="8D--kwT4kYS_x3MsUnNY-229" vertex="1">
          <mxGeometry width="280" height="280" as="geometry" />
        </mxCell>
        <mxCell id="8D--kwT4kYS_x3MsUnNY-231" value="B" style="rhombus;whiteSpace=wrap;html=1;fillColor=#6a00ff;fontColor=#ffffff;strokeColor=#3700CC;" parent="8D--kwT4kYS_x3MsUnNY-229" vertex="1">
          <mxGeometry x="120" y="120" width="40" height="40" as="geometry" />
        </mxCell>
        <mxCell id="8D--kwT4kYS_x3MsUnNY-232" value="" style="group" parent="1" vertex="1" connectable="0">
          <mxGeometry x="-180" y="180" width="280" height="280" as="geometry" />
        </mxCell>
        <mxCell id="8D--kwT4kYS_x3MsUnNY-233" value="" style="rhombus;whiteSpace=wrap;html=1;fillColor=#1ba1e2;fontColor=#ffffff;strokeColor=default;strokeWidth=3;" parent="8D--kwT4kYS_x3MsUnNY-232" vertex="1">
          <mxGeometry width="280" height="280" as="geometry" />
        </mxCell>
        <mxCell id="8D--kwT4kYS_x3MsUnNY-234" value="B" style="rhombus;whiteSpace=wrap;html=1;fillColor=#6a00ff;fontColor=#ffffff;strokeColor=#3700CC;" parent="8D--kwT4kYS_x3MsUnNY-232" vertex="1">
          <mxGeometry x="120" y="120" width="40" height="40" as="geometry" />
        </mxCell>
        <mxCell id="8D--kwT4kYS_x3MsUnNY-235" value="" style="group" parent="1" vertex="1" connectable="0">
          <mxGeometry x="-320" y="40" width="280" height="280" as="geometry" />
        </mxCell>
        <mxCell id="8D--kwT4kYS_x3MsUnNY-236" value="" style="rhombus;whiteSpace=wrap;html=1;fillColor=#1ba1e2;fontColor=#ffffff;strokeColor=default;strokeWidth=3;" parent="8D--kwT4kYS_x3MsUnNY-235" vertex="1">
          <mxGeometry width="280" height="280" as="geometry" />
        </mxCell>
        <mxCell id="8D--kwT4kYS_x3MsUnNY-237" value="B" style="rhombus;whiteSpace=wrap;html=1;fillColor=#6a00ff;fontColor=#ffffff;strokeColor=#3700CC;" parent="8D--kwT4kYS_x3MsUnNY-235" vertex="1">
          <mxGeometry x="120" y="120" width="40" height="40" as="geometry" />
        </mxCell>
        <mxCell id="8D--kwT4kYS_x3MsUnNY-247" value="" style="group" parent="1" vertex="1" connectable="0">
          <mxGeometry x="-480" y="200" width="280" height="280" as="geometry" />
        </mxCell>
        <mxCell id="8D--kwT4kYS_x3MsUnNY-248" value="" style="rhombus;whiteSpace=wrap;html=1;fillColor=#1ba1e2;fontColor=#ffffff;strokeColor=default;strokeWidth=3;" parent="8D--kwT4kYS_x3MsUnNY-247" vertex="1">
          <mxGeometry width="280" height="280" as="geometry" />
        </mxCell>
        <mxCell id="8D--kwT4kYS_x3MsUnNY-249" value="B" style="rhombus;whiteSpace=wrap;html=1;fillColor=#6a00ff;fontColor=#ffffff;strokeColor=#3700CC;" parent="8D--kwT4kYS_x3MsUnNY-247" vertex="1">
          <mxGeometry x="120" y="120" width="40" height="40" as="geometry" />
        </mxCell>
        <mxCell id="8D--kwT4kYS_x3MsUnNY-262" value="" style="group" parent="1" vertex="1" connectable="0">
          <mxGeometry x="160" y="720" width="300" height="440" as="geometry" />
        </mxCell>
        <mxCell id="8D--kwT4kYS_x3MsUnNY-263" value="" style="rhombus;whiteSpace=wrap;html=1;fillColor=#1ba1e2;fontColor=#ffffff;strokeColor=default;strokeWidth=3;" parent="8D--kwT4kYS_x3MsUnNY-262" vertex="1">
          <mxGeometry width="280" height="280" as="geometry" />
        </mxCell>
        <mxCell id="8D--kwT4kYS_x3MsUnNY-264" value="B" style="rhombus;whiteSpace=wrap;html=1;fillColor=#6a00ff;fontColor=#ffffff;strokeColor=#3700CC;" parent="8D--kwT4kYS_x3MsUnNY-262" vertex="1">
          <mxGeometry x="120" y="120" width="40" height="40" as="geometry" />
        </mxCell>
        <mxCell id="8D--kwT4kYS_x3MsUnNY-280" value="" style="group" parent="8D--kwT4kYS_x3MsUnNY-262" vertex="1" connectable="0">
          <mxGeometry x="-160" y="160" width="280" height="280" as="geometry" />
        </mxCell>
        <mxCell id="8D--kwT4kYS_x3MsUnNY-281" value="" style="rhombus;whiteSpace=wrap;html=1;fillColor=#1ba1e2;fontColor=#ffffff;strokeColor=default;strokeWidth=3;" parent="8D--kwT4kYS_x3MsUnNY-280" vertex="1">
          <mxGeometry width="280" height="280" as="geometry" />
        </mxCell>
        <mxCell id="8D--kwT4kYS_x3MsUnNY-282" value="B" style="rhombus;whiteSpace=wrap;html=1;fillColor=#6a00ff;fontColor=#ffffff;strokeColor=#3700CC;" parent="8D--kwT4kYS_x3MsUnNY-280" vertex="1">
          <mxGeometry x="120" y="120" width="40" height="40" as="geometry" />
        </mxCell>
        <mxCell id="8D--kwT4kYS_x3MsUnNY-265" value="" style="group" parent="1" vertex="1" connectable="0">
          <mxGeometry x="300" y="860" width="580" height="300" as="geometry" />
        </mxCell>
        <mxCell id="8D--kwT4kYS_x3MsUnNY-266" value="" style="rhombus;whiteSpace=wrap;html=1;fillColor=#1ba1e2;fontColor=#ffffff;strokeColor=default;strokeWidth=3;" parent="8D--kwT4kYS_x3MsUnNY-265" vertex="1">
          <mxGeometry width="280" height="280" as="geometry" />
        </mxCell>
        <mxCell id="8D--kwT4kYS_x3MsUnNY-267" value="B" style="rhombus;whiteSpace=wrap;html=1;fillColor=#6a00ff;fontColor=#ffffff;strokeColor=#3700CC;" parent="8D--kwT4kYS_x3MsUnNY-265" vertex="1">
          <mxGeometry x="120" y="120" width="40" height="40" as="geometry" />
        </mxCell>
        <mxCell id="8D--kwT4kYS_x3MsUnNY-271" value="" style="group" parent="1" vertex="1" connectable="0">
          <mxGeometry x="300" y="1140" width="280" height="280" as="geometry" />
        </mxCell>
        <mxCell id="8D--kwT4kYS_x3MsUnNY-272" value="" style="rhombus;whiteSpace=wrap;html=1;fillColor=#1ba1e2;fontColor=#ffffff;strokeColor=default;strokeWidth=3;" parent="8D--kwT4kYS_x3MsUnNY-271" vertex="1">
          <mxGeometry width="280" height="280" as="geometry" />
        </mxCell>
        <mxCell id="8D--kwT4kYS_x3MsUnNY-273" value="B" style="rhombus;whiteSpace=wrap;html=1;fillColor=#6a00ff;fontColor=#ffffff;strokeColor=#3700CC;" parent="8D--kwT4kYS_x3MsUnNY-271" vertex="1">
          <mxGeometry x="120" y="120" width="40" height="40" as="geometry" />
        </mxCell>
        <mxCell id="8D--kwT4kYS_x3MsUnNY-274" value="" style="group" parent="1" vertex="1" connectable="0">
          <mxGeometry x="-180" y="740" width="280" height="280" as="geometry" />
        </mxCell>
        <mxCell id="aaMeHy59j81lFNc6kDPE-9" value="" style="group" vertex="1" connectable="0" parent="8D--kwT4kYS_x3MsUnNY-274">
          <mxGeometry x="20" y="-20" width="280" height="280" as="geometry" />
        </mxCell>
        <mxCell id="8D--kwT4kYS_x3MsUnNY-275" value="" style="rhombus;whiteSpace=wrap;html=1;fillColor=#1ba1e2;fontColor=#ffffff;strokeColor=default;strokeWidth=3;" parent="aaMeHy59j81lFNc6kDPE-9" vertex="1">
          <mxGeometry width="280" height="280" as="geometry" />
        </mxCell>
        <mxCell id="8D--kwT4kYS_x3MsUnNY-276" value="B" style="rhombus;whiteSpace=wrap;html=1;fillColor=#6a00ff;fontColor=#ffffff;strokeColor=#3700CC;" parent="aaMeHy59j81lFNc6kDPE-9" vertex="1">
          <mxGeometry x="120" y="120" width="40" height="40" as="geometry" />
        </mxCell>
        <mxCell id="8D--kwT4kYS_x3MsUnNY-292" value="" style="group" parent="1" vertex="1" connectable="0">
          <mxGeometry x="140" y="1020" width="280" height="280" as="geometry" />
        </mxCell>
        <mxCell id="8D--kwT4kYS_x3MsUnNY-293" value="" style="rhombus;whiteSpace=wrap;html=1;fillColor=#1ba1e2;fontColor=#ffffff;strokeColor=default;strokeWidth=3;" parent="8D--kwT4kYS_x3MsUnNY-292" vertex="1">
          <mxGeometry width="280" height="280" as="geometry" />
        </mxCell>
        <mxCell id="8D--kwT4kYS_x3MsUnNY-294" value="B" style="rhombus;whiteSpace=wrap;html=1;fillColor=#6a00ff;fontColor=#ffffff;strokeColor=#3700CC;" parent="8D--kwT4kYS_x3MsUnNY-292" vertex="1">
          <mxGeometry x="120" y="120" width="40" height="40" as="geometry" />
        </mxCell>
        <mxCell id="8D--kwT4kYS_x3MsUnNY-245" value="" style="rhombus;whiteSpace=wrap;html=1;fillColor=#1ba1e2;fontColor=#ffffff;strokeColor=default;strokeWidth=3;" parent="1" vertex="1">
          <mxGeometry x="-340" y="340" width="280" height="280" as="geometry" />
        </mxCell>
        <mxCell id="8D--kwT4kYS_x3MsUnNY-246" value="B" style="rhombus;whiteSpace=wrap;html=1;fillColor=#6a00ff;fontColor=#ffffff;strokeColor=#3700CC;" parent="1" vertex="1">
          <mxGeometry x="-220" y="460" width="40" height="40" as="geometry" />
        </mxCell>
        <mxCell id="8D--kwT4kYS_x3MsUnNY-122" value="" style="rhombus;whiteSpace=wrap;html=1;fillColor=#1ba1e2;fontColor=#ffffff;strokeColor=default;strokeWidth=3;" parent="1" vertex="1">
          <mxGeometry x="20" y="580" width="280" height="280" as="geometry" />
        </mxCell>
        <mxCell id="8D--kwT4kYS_x3MsUnNY-123" value="B" style="rhombus;whiteSpace=wrap;html=1;fillColor=#6a00ff;fontColor=#ffffff;strokeColor=#3700CC;" parent="1" vertex="1">
          <mxGeometry x="140" y="700.5" width="40" height="40" as="geometry" />
        </mxCell>
        <mxCell id="8D--kwT4kYS_x3MsUnNY-254" value="" style="rhombus;whiteSpace=wrap;html=1;fillColor=#1ba1e2;fontColor=#ffffff;strokeColor=default;strokeWidth=3;" parent="1" vertex="1">
          <mxGeometry x="-280" y="560" width="280" height="280" as="geometry" />
        </mxCell>
        <mxCell id="8D--kwT4kYS_x3MsUnNY-255" value="B" style="rhombus;whiteSpace=wrap;html=1;fillColor=#6a00ff;fontColor=#ffffff;strokeColor=#3700CC;" parent="1" vertex="1">
          <mxGeometry x="-160" y="680" width="40" height="40" as="geometry" />
        </mxCell>
        <mxCell id="8D--kwT4kYS_x3MsUnNY-289" value="" style="group" parent="1" vertex="1" connectable="0">
          <mxGeometry x="460" y="1020" width="280" height="280" as="geometry" />
        </mxCell>
        <mxCell id="8D--kwT4kYS_x3MsUnNY-290" value="" style="rhombus;whiteSpace=wrap;html=1;fillColor=#1ba1e2;fontColor=#ffffff;strokeColor=default;strokeWidth=3;" parent="8D--kwT4kYS_x3MsUnNY-289" vertex="1">
          <mxGeometry width="280" height="280" as="geometry" />
        </mxCell>
        <mxCell id="8D--kwT4kYS_x3MsUnNY-291" value="B" style="rhombus;whiteSpace=wrap;html=1;fillColor=#6a00ff;fontColor=#ffffff;strokeColor=#3700CC;" parent="8D--kwT4kYS_x3MsUnNY-289" vertex="1">
          <mxGeometry x="120" y="120" width="40" height="40" as="geometry" />
        </mxCell>
        <mxCell id="8D--kwT4kYS_x3MsUnNY-286" value="" style="group" parent="1" vertex="1" connectable="0">
          <mxGeometry x="778" y="738" width="280" height="422" as="geometry" />
        </mxCell>
        <mxCell id="8D--kwT4kYS_x3MsUnNY-288" value="B" style="rhombus;whiteSpace=wrap;html=1;fillColor=#6a00ff;fontColor=#ffffff;strokeColor=#3700CC;" parent="8D--kwT4kYS_x3MsUnNY-286" vertex="1">
          <mxGeometry x="120" y="120" width="40" height="40" as="geometry" />
        </mxCell>
        <mxCell id="8D--kwT4kYS_x3MsUnNY-256" value="" style="group" parent="8D--kwT4kYS_x3MsUnNY-286" vertex="1" connectable="0">
          <mxGeometry x="-338" y="-18" width="440" height="440" as="geometry" />
        </mxCell>
        <mxCell id="8D--kwT4kYS_x3MsUnNY-257" value="" style="rhombus;whiteSpace=wrap;html=1;fillColor=#1ba1e2;fontColor=#ffffff;strokeColor=default;strokeWidth=3;" parent="8D--kwT4kYS_x3MsUnNY-256" vertex="1">
          <mxGeometry width="280" height="280" as="geometry" />
        </mxCell>
        <mxCell id="8D--kwT4kYS_x3MsUnNY-258" value="B" style="rhombus;whiteSpace=wrap;html=1;fillColor=#6a00ff;fontColor=#ffffff;strokeColor=#3700CC;" parent="8D--kwT4kYS_x3MsUnNY-256" vertex="1">
          <mxGeometry x="120" y="120" width="40" height="40" as="geometry" />
        </mxCell>
        <mxCell id="1OXfZe1y36bJGcs7A2kt-15" value="&lt;div&gt;Alianz&lt;/div&gt;&lt;div&gt;Farm&lt;/div&gt;" style="rhombus;whiteSpace=wrap;html=1;fillColor=#d80073;strokeColor=#A50040;fontColor=#ffffff;" parent="8D--kwT4kYS_x3MsUnNY-256" vertex="1">
          <mxGeometry x="100" width="80" height="80" as="geometry" />
        </mxCell>
        <mxCell id="1OXfZe1y36bJGcs7A2kt-38" value="" style="group" parent="8D--kwT4kYS_x3MsUnNY-256" vertex="1" connectable="0">
          <mxGeometry x="160" y="160" width="280" height="280" as="geometry" />
        </mxCell>
        <mxCell id="8D--kwT4kYS_x3MsUnNY-284" value="" style="rhombus;whiteSpace=wrap;html=1;fillColor=#1ba1e2;fontColor=#ffffff;strokeColor=default;strokeWidth=3;" parent="1OXfZe1y36bJGcs7A2kt-38" vertex="1">
          <mxGeometry width="280" height="280" as="geometry" />
        </mxCell>
        <mxCell id="8D--kwT4kYS_x3MsUnNY-285" value="B" style="rhombus;whiteSpace=wrap;html=1;fillColor=#6a00ff;fontColor=#ffffff;strokeColor=#3700CC;" parent="1OXfZe1y36bJGcs7A2kt-38" vertex="1">
          <mxGeometry x="120" y="120" width="40" height="40" as="geometry" />
        </mxCell>
        <mxCell id="8D--kwT4kYS_x3MsUnNY-313" value="&lt;div&gt;DerRationale&lt;/div&gt;&lt;div&gt;21&lt;br&gt;&lt;/div&gt;" style="rhombus;whiteSpace=wrap;html=1;fillColor=#f5f5f5;fontColor=#333333;strokeColor=#666666;" parent="1" vertex="1">
          <mxGeometry x="340" y="560" width="80" height="80" as="geometry" />
        </mxCell>
        <mxCell id="8D--kwT4kYS_x3MsUnNY-19" value="Tocra66&lt;br&gt;23" style="rhombus;whiteSpace=wrap;html=1;fillColor=#f5f5f5;fontColor=#333333;strokeColor=#666666;" parent="1" vertex="1">
          <mxGeometry x="340" y="400" width="80" height="80" as="geometry" />
        </mxCell>
        <mxCell id="8D--kwT4kYS_x3MsUnNY-8" value="hyjdhdjd&lt;br&gt;25" style="rhombus;whiteSpace=wrap;html=1;fillColor=#f5f5f5;strokeColor=#666666;fontColor=#333333;" parent="1" vertex="1">
          <mxGeometry x="460" y="320" width="80" height="80" as="geometry" />
        </mxCell>
        <mxCell id="8D--kwT4kYS_x3MsUnNY-22" value="Huseyn&lt;br&gt;24" style="rhombus;whiteSpace=wrap;html=1;fillColor=#f5f5f5;strokeColor=#666666;fontColor=#333333;" parent="1" vertex="1">
          <mxGeometry x="260" y="320" width="80" height="80" as="geometry" />
        </mxCell>
        <mxCell id="1OXfZe1y36bJGcs7A2kt-2" value="&lt;div&gt;RuneMagic&lt;/div&gt;&lt;div&gt;22&lt;br&gt;&lt;/div&gt;" style="rhombus;whiteSpace=wrap;html=1;fillColor=#f5f5f5;strokeColor=#666666;fontColor=#333333;" parent="1" vertex="1">
          <mxGeometry x="500" y="360" width="80" height="80" as="geometry" />
        </mxCell>
        <mxCell id="1OXfZe1y36bJGcs7A2kt-5" value="&lt;div&gt;timonserodde&lt;/div&gt;&lt;div&gt;22&lt;br&gt;&lt;/div&gt;" style="rhombus;whiteSpace=wrap;html=1;" parent="1" vertex="1">
          <mxGeometry x="360" y="460" width="80" height="80" as="geometry" />
        </mxCell>
        <mxCell id="8D--kwT4kYS_x3MsUnNY-153" value="B" style="rhombus;whiteSpace=wrap;html=1;fillColor=#6a00ff;fontColor=#ffffff;strokeColor=#3700CC;" parent="1" vertex="1">
          <mxGeometry x="280" y="240" width="40" height="40" as="geometry" />
        </mxCell>
        <mxCell id="8D--kwT4kYS_x3MsUnNY-308" value="" style="rhombus;whiteSpace=wrap;html=1;fillColor=#18141DCC;" parent="1" vertex="1">
          <mxGeometry x="220" y="200" width="80" height="80" as="geometry" />
        </mxCell>
        <mxCell id="8D--kwT4kYS_x3MsUnNY-38" value="KonstantinG86&lt;br&gt;23" style="rhombus;whiteSpace=wrap;html=1;fillColor=#f5f5f5;strokeColor=#666666;fontColor=#333333;" parent="1" vertex="1">
          <mxGeometry x="280" y="260" width="80" height="80" as="geometry" />
        </mxCell>
        <mxCell id="1OXfZe1y36bJGcs7A2kt-8" value="&lt;div&gt;Mamborton&lt;/div&gt;&lt;div&gt;23&lt;br&gt;&lt;/div&gt;" style="rhombus;whiteSpace=wrap;html=1;fillColor=#f5f5f5;strokeColor=#666666;fontColor=#333333;" parent="1" vertex="1">
          <mxGeometry x="320" y="220" width="80" height="80" as="geometry" />
        </mxCell>
        <mxCell id="1OXfZe1y36bJGcs7A2kt-10" value="&lt;div&gt;Alianz&lt;/div&gt;&lt;div&gt;Farm&lt;/div&gt;" style="rhombus;whiteSpace=wrap;html=1;fillColor=#d80073;strokeColor=#A50040;fontColor=#ffffff;" parent="1" vertex="1">
          <mxGeometry x="460" y="560" width="80" height="80" as="geometry" />
        </mxCell>
        <mxCell id="1OXfZe1y36bJGcs7A2kt-11" value="ᎷᏗᏖᏒᎥጀ&lt;br&gt;18" style="rhombus;whiteSpace=wrap;html=1;fillColor=#f5f5f5;strokeColor=#666666;fontColor=#333333;" parent="1" vertex="1">
          <mxGeometry x="420" y="280" width="80" height="80" as="geometry" />
        </mxCell>
        <mxCell id="1OXfZe1y36bJGcs7A2kt-16" value="&lt;div&gt;Alianz&lt;/div&gt;&lt;div&gt;Farm&lt;/div&gt;&lt;div&gt;441/490&lt;br&gt;&lt;/div&gt;" style="rhombus;whiteSpace=wrap;html=1;fillColor=#d80073;strokeColor=#A50040;fontColor=#ffffff;" parent="1" vertex="1">
          <mxGeometry x="680" y="500" width="80" height="80" as="geometry" />
        </mxCell>
        <mxCell id="8D--kwT4kYS_x3MsUnNY-268" value="" style="group" parent="1" vertex="1" connectable="0">
          <mxGeometry x="900" y="580" width="280" height="420" as="geometry" />
        </mxCell>
        <mxCell id="8D--kwT4kYS_x3MsUnNY-269" value="" style="rhombus;whiteSpace=wrap;html=1;fillColor=#1ba1e2;fontColor=#ffffff;strokeColor=default;strokeWidth=3;" parent="8D--kwT4kYS_x3MsUnNY-268" vertex="1">
          <mxGeometry width="280" height="280" as="geometry" />
        </mxCell>
        <mxCell id="8D--kwT4kYS_x3MsUnNY-270" value="B" style="rhombus;whiteSpace=wrap;html=1;fillColor=#6a00ff;fontColor=#ffffff;strokeColor=#3700CC;" parent="8D--kwT4kYS_x3MsUnNY-268" vertex="1">
          <mxGeometry x="120" y="120" width="40" height="40" as="geometry" />
        </mxCell>
        <mxCell id="8D--kwT4kYS_x3MsUnNY-287" value="" style="rhombus;whiteSpace=wrap;html=1;fillColor=#1ba1e2;fontColor=#ffffff;strokeColor=default;strokeWidth=3;" parent="8D--kwT4kYS_x3MsUnNY-268" vertex="1">
          <mxGeometry x="-140" y="140" width="280" height="280" as="geometry" />
        </mxCell>
        <mxCell id="8D--kwT4kYS_x3MsUnNY-211" value="" style="rhombus;whiteSpace=wrap;html=1;fillColor=#1ba1e2;fontColor=#ffffff;strokeColor=default;strokeWidth=3;" parent="1" vertex="1">
          <mxGeometry x="940" y="340" width="280" height="280" as="geometry" />
        </mxCell>
        <mxCell id="8D--kwT4kYS_x3MsUnNY-212" value="B" style="rhombus;whiteSpace=wrap;html=1;fillColor=#6a00ff;fontColor=#ffffff;strokeColor=#3700CC;" parent="1" vertex="1">
          <mxGeometry x="1060" y="460" width="40" height="40" as="geometry" />
        </mxCell>
        <mxCell id="1OXfZe1y36bJGcs7A2kt-12" value="&lt;div&gt;Alianz&lt;/div&gt;&lt;div&gt;Farm&lt;/div&gt;" style="rhombus;whiteSpace=wrap;html=1;fillColor=#d80073;strokeColor=#A50040;fontColor=#ffffff;" parent="1" vertex="1">
          <mxGeometry x="360" y="820" width="80" height="80" as="geometry" />
        </mxCell>
        <mxCell id="aaMeHy59j81lFNc6kDPE-1" value="&lt;div&gt;Lord e Austria&lt;br&gt;&lt;/div&gt;&lt;div&gt;23&lt;br&gt;&lt;/div&gt;" style="rhombus;whiteSpace=wrap;html=1;fillColor=#f5f5f5;strokeColor=#666666;fontColor=#333333;" vertex="1" parent="1">
          <mxGeometry x="360" y="180" width="80" height="80" as="geometry" />
        </mxCell>
        <mxCell id="aaMeHy59j81lFNc6kDPE-3" value="" style="rhombus;whiteSpace=wrap;html=1;fillColor=#18141DCC;" vertex="1" parent="1">
          <mxGeometry x="440" y="100" width="80" height="80" as="geometry" />
        </mxCell>
        <mxCell id="aaMeHy59j81lFNc6kDPE-4" value="" style="rhombus;whiteSpace=wrap;html=1;fillColor=#18141DCC;" vertex="1" parent="1">
          <mxGeometry x="480" y="140" width="80" height="80" as="geometry" />
        </mxCell>
        <mxCell id="aaMeHy59j81lFNc6kDPE-7" value="" style="group" vertex="1" connectable="0" parent="1">
          <mxGeometry x="20" y="260" width="280" height="420" as="geometry" />
        </mxCell>
        <mxCell id="8D--kwT4kYS_x3MsUnNY-63" value="" style="rhombus;whiteSpace=wrap;html=1;fillColor=#1ba1e2;fontColor=#ffffff;strokeColor=default;strokeWidth=3;" parent="aaMeHy59j81lFNc6kDPE-7" vertex="1">
          <mxGeometry width="280" height="280" as="geometry" />
        </mxCell>
        <mxCell id="8D--kwT4kYS_x3MsUnNY-64" value="B" style="rhombus;whiteSpace=wrap;html=1;fillColor=#6a00ff;fontColor=#ffffff;strokeColor=#3700CC;" parent="aaMeHy59j81lFNc6kDPE-7" vertex="1">
          <mxGeometry x="120" y="120" width="40" height="40" as="geometry" />
        </mxCell>
        <mxCell id="8D--kwT4kYS_x3MsUnNY-311" value="" style="rhombus;whiteSpace=wrap;html=1;fillColor=#18141DCC;" parent="aaMeHy59j81lFNc6kDPE-7" vertex="1">
          <mxGeometry x="160" y="140" width="80" height="80" as="geometry" />
        </mxCell>
        <mxCell id="8D--kwT4kYS_x3MsUnNY-69" value="" style="rhombus;whiteSpace=wrap;html=1;fillColor=#18141DCC;" parent="aaMeHy59j81lFNc6kDPE-7" vertex="1">
          <mxGeometry x="200" y="100" width="80" height="80" as="geometry" />
        </mxCell>
        <mxCell id="8D--kwT4kYS_x3MsUnNY-295" value="" style="group" parent="aaMeHy59j81lFNc6kDPE-7" vertex="1" connectable="0">
          <mxGeometry x="-140" y="140" width="280" height="280" as="geometry" />
        </mxCell>
        <mxCell id="8D--kwT4kYS_x3MsUnNY-95" value="" style="rhombus;whiteSpace=wrap;html=1;fillColor=#1ba1e2;fontColor=#ffffff;strokeColor=default;strokeWidth=3;" parent="8D--kwT4kYS_x3MsUnNY-295" vertex="1">
          <mxGeometry width="280" height="280" as="geometry" />
        </mxCell>
        <mxCell id="8D--kwT4kYS_x3MsUnNY-96" value="B" style="rhombus;whiteSpace=wrap;html=1;fillColor=#6a00ff;fontColor=#ffffff;strokeColor=#3700CC;" parent="8D--kwT4kYS_x3MsUnNY-295" vertex="1">
          <mxGeometry x="120" y="120" width="40" height="40" as="geometry" />
        </mxCell>
        <mxCell id="1OXfZe1y36bJGcs7A2kt-34" value="&lt;div&gt;Alianz&lt;/div&gt;&lt;div&gt;Farm&lt;/div&gt;" style="rhombus;whiteSpace=wrap;html=1;fillColor=#d80073;strokeColor=#A50040;fontColor=#ffffff;" parent="1" vertex="1">
          <mxGeometry x="160" y="340" width="80" height="80" as="geometry" />
        </mxCell>
        <mxCell id="1OXfZe1y36bJGcs7A2kt-35" value="&lt;div&gt;Alianz&lt;/div&gt;&lt;div&gt;Farm&lt;/div&gt;" style="rhombus;whiteSpace=wrap;html=1;fillColor=#d80073;strokeColor=#A50040;fontColor=#ffffff;" parent="1" vertex="1">
          <mxGeometry x="60" y="520" width="80" height="80" as="geometry" />
        </mxCell>
        <mxCell id="8D--kwT4kYS_x3MsUnNY-36" value="&lt;div&gt;keks&lt;/div&gt;&lt;div&gt;22&lt;br&gt;&lt;/div&gt;" style="rhombus;whiteSpace=wrap;html=1;fillColor=#f5f5f5;fontColor=#333333;strokeColor=#666666;" parent="1" vertex="1">
          <mxGeometry x="580" y="360" width="80" height="80" as="geometry" />
        </mxCell>
        <mxCell id="aaMeHy59j81lFNc6kDPE-11" value="&lt;div&gt;Flaggenbasti&lt;/div&gt;&lt;div&gt;20&lt;br&gt;&lt;/div&gt;" style="rhombus;whiteSpace=wrap;html=1;fillColor=#f5f5f5;fontColor=#333333;strokeColor=#666666;" vertex="1" parent="1">
          <mxGeometry x="520" y="460" width="80" height="80" as="geometry" />
        </mxCell>
      </root>
    </mxGraphModel>
  </diagram>
</mxfile>
